<svg xmlns="http://www.w3.org/2000/svg" xmlns:xlink="http://www.w3.org/1999/xlink" version="1.1" id="Capa_1" x="0px" y="0px" width="100px" height="100px" viewBox="0 0 100 100" enable-background="new 0 0 100 100" xml:space="preserve">
<g id="Capa_29">
	<g>
		<path d="M76.493,23.838c-0.577-0.142-1.17-0.213-1.76-0.213c-3.416,0-6.368,2.32-7.18,5.644c-0.471,1.92-0.162,3.906,0.865,5.595    c1.026,1.687,2.646,2.873,4.565,3.343c0.581,0.142,1.176,0.214,1.77,0.214c3.415,0,6.365-2.317,7.175-5.635    C82.899,28.822,80.46,24.809,76.493,23.838z M80.498,32.435c-0.646,2.657-3.008,4.513-5.744,4.512    c-0.474,0-0.953-0.058-1.419-0.172c-1.536-0.375-2.837-1.326-3.659-2.677c-0.821-1.353-1.067-2.942-0.692-4.479    c0.649-2.661,3.014-4.52,5.748-4.52c0.472,0,0.947,0.058,1.41,0.171C79.321,26.047,81.275,29.261,80.498,32.435z"/>
		<path d="M35.199,16.357l-0.471-1.396c-4.883,1.653-7.514,6.971-5.862,11.854l1.395-0.471    C28.87,22.229,31.085,17.749,35.199,16.357z"/>
		<path d="M33.067,10.05c-3.681,1.246-6.654,3.848-8.374,7.327c-1.72,3.48-1.982,7.423-0.736,11.102l1.395-0.473    c-1.12-3.306-0.885-6.848,0.661-9.975c1.546-3.128,4.22-5.466,7.526-6.585L33.067,10.05z"/>
		<path d="M31.832,6.396L31.36,5C20.984,8.51,15.399,19.808,18.907,30.186l1.395-0.472C17.053,20.104,22.226,9.645,31.832,6.396z"/>
		<path d="M73.229,39.901c-0.843-0.35-1.769-0.502-2.701-0.464L59.411,41.1l-5.752-4.871c0.345-0.328,0.613-0.714,0.796-1.129    l0.439-1.018l8.962,1.066l0.237-0.183c0.111-0.085,0.687-0.575,1.161-1.863c0.471-1.288,0.323-1.979,0.266-2.16l-0.077-0.251    L41.06,14.643l-0.415,0.561c-1.643,2.224-2.959,4.671-3.911,7.277c-1.008,2.765-1.589,5.64-1.726,8.546l-0.033,0.685l9.184,1.096    l0.178,1.063c0.211,1.252,1.18,2.401,2.426,2.872l-0.324,0.33l9.292,10.335c0.791,0.772,1.903,1.135,2.989,0.978l4.346-0.624    l-5.051,12.153c-0.022,0.061-9.461,14.786-9.461,14.786c-0.557,0.855-0.79,1.882-0.655,2.89l2.149,16.073l8.444-1.128l-1.94-14.5    l3.777-5.682l0,0l0.015-0.022l0.714-1.076l2.929-4.405l-1.228-0.814l-7.737,11.645l1.815,13.594l-5.521,0.738l-1.955-14.614    c-0.088-0.66,0.064-1.33,0.431-1.896l9.535-14.831c0.021-0.062,5.43-13.165,5.43-13.165l4.719-0.665l-0.209-1.457l-10.754,1.545    c-0.641,0.089-1.295-0.126-1.719-0.538l-8.322-9.259l1.893-1.834l0.85,0.757l-0.026,0.014l7.788,6.592l11.072-1.696    c0.917-0.14,1.8-0.04,2.616,0.299c2.493,1.037,3.68,3.909,2.646,6.403c0,0-6.914,16.623-6.933,16.657l-1.542,13.398l-0.019,0.176    l5.069,13.206l-5.202,1.996l-5.288-13.764c-0.143-0.375-0.203-0.787-0.18-1.166l0.64-6.355l-1.744,2.625l-0.356,3.609    c-0.042,0.615,0.055,1.242,0.271,1.815L65.839,95l7.953-3.05l-5.47-14.248l1.368-12.703c0.033-0.065,6.981-16.768,6.981-16.768    C78.015,44.985,76.471,41.249,73.229,39.901z M36.52,30.411c0.184-2.524,0.719-5.02,1.597-7.427    c0.823-2.254,1.935-4.384,3.306-6.341L64.11,31.576c-0.013,0.203-0.064,0.54-0.24,1.021c-0.185,0.506-0.382,0.827-0.515,1.009    l-9.376-1.117l0,0L36.52,30.411z M45.79,33.625l-0.107-0.638l4.406,0.524l-2.061,1.996l-0.313-0.039    c-0.134-0.017-0.276-0.051-0.424-0.102C46.533,35.088,45.916,34.371,45.79,33.625z M53.102,34.515    c-0.119,0.275-0.319,0.527-0.569,0.741l-1.881-1.678l2.717,0.323L53.102,34.515z"/>
	</g>
</g>
</svg>